<?xml version="1.0" encoding="utf-8"?>
<!-- Generator: Adobe Illustrator 26.0.3, SVG Export Plug-In . SVG Version: 6.00 Build 0)  -->
<svg version="1.1" id="Layer_1" xmlns="http://www.w3.org/2000/svg" xmlns:xlink="http://www.w3.org/1999/xlink" x="0px" y="0px"
	 viewBox="0 0 595 595" style="enable-background:new 0 0 595 595;" xml:space="preserve">
<style type="text/css">
	.st0{fill-rule:evenodd;clip-rule:evenodd;fill:#6027E2;}
</style>
<path class="st0" d="M156.3,388.4l-36.7,123.9c-3.8,15,1.5,24.2,14.1,26.1c10.6,30.5,34.2,25.9,54.3,31.5c5.1,1.6,8.3-1,8.5-6.2
	l7-138.7c0.2-4.3,2.8-6.4,7.4-5.9c5.5,0.6,10.8,0.8,15.9,0.4c15.4,7.5,36.6,9.4,53.3,16.3c2.2,1.1,1.8,3.5-0.1,4.2
	c-4.2,1.6-8.3,3.5-12.1,5.9c-8.2,5.2-6.6,13,2,8.2c7.2-4,16-5.7,24.9-5.8c5.8,0,11.6,1.4,17.3,2.8c5.6,3.3,10.8,5.1,15.5,9.8
	c6.3,6.3,11.4,13.6,13.7,21.6c2.7,9.5,9.4,5,7.1-4.4c-1.8-7.7-4.8-14.8-8.8-21.2c0.5,0.4,1.1,0.7,1.6,1.1
	c7.2,5.2,10.3,10.7,12.8,17.1c3,7.8,7.7,4.5,6.7-2.5c-1.1-7.6-7.6-16.3-12.1-21.6c-4.5-5.2-14.6-10.9-23.7-14.5
	c-3.8-1.5-5.7-1.7-7.6-4.1c-2.8-3.6-3.7-4.4-9.3-6.5c-11.9-4.4-22.8-6.7-34.1-10.3c-2.9-0.9-5.8-0.8-8.7-0.1
	c-7.2,2-16.1,2.6-25.4,1.9c2.5-0.7,4.8-1.6,6.9-2.6c48.3-23.7,86.3-60.6,111.2-91c24.3-29.6,25.4-64.1,12.9-87.3
	c8.4-40.5-18.5-79.3-7.6-108.7c40.3-4.6,119.7-62.5,163.9-47.3C487.3-14.7,340.6,48.4,326,62.8c-7.7,9.8,12.8,27,21.3,56.4
	c-14.6-24.3-38-35.2-40.4-50.3c-0.3-2.6-2.6-3.3-4.5-2.1c-17.4,10.9-35.5,37.8-37.1,102.5c-0.4,15.8-2.3,17.7-16,23.2
	c-15.5,6.2-37.1,17.9-52.1,39.1c-24.2,34-46.5,97.6-45.6,138.2C151.6,376.7,153.4,382.9,156.3,388.4z"/>
</svg>
