<?xml version="1.0" encoding="utf-8"?>
<!-- Generator: Adobe Illustrator 25.2.3, SVG Export Plug-In . SVG Version: 6.00 Build 0)  -->
<svg version="1.1" id="Layer_1" xmlns="http://www.w3.org/2000/svg" xmlns:xlink="http://www.w3.org/1999/xlink" x="0px" y="0px"
	 viewBox="0 0 1740 528" style="enable-background:new 0 0 1740 528;" xml:space="preserve">
<path d="M172.9,51.9c15.2,9,30.4,18,45.5,27c-7.9,14-15.9,28-23.8,42.1c23.8,13.7,47.5,27.4,71.3,41.1c-9,15.6-18.1,31.3-27.1,46.9
	c-28.3-16.3-56.5-32.6-84.8-48.9c-10.3-6.9-21.3-12.7-31.9-19.1C138.9,111.3,155.9,81.5,172.9,51.9z"/>
<path d="M335.5,76.7c63.2,0,126.3,0,189.5,0c11.3,0,22.6,3.1,32.3,9.1c14.3,8.8,24.6,23.5,27.8,40c1.6,7.9,1.1,15.3,1.2,23.3
	c0,6.5,0.3,12.6-0.8,18.9c-2.3,15-10.5,28.9-22.4,38.2c-10.8,8.6-24.4,13.2-38.2,13.2c-63.1,0-126.4,0-189.5,0
	C335.5,171.8,335.5,124.2,335.5,76.7z"/>
<path d="M666,82.5c24.7,0,49.4,0,74.1,0c4.7,0,10.1,0.4,13.8,3.7c3.9,3.5,4.6,8.9,4.6,13.8c0,71.3,0,142.7,0,214
	c0,3.1-0.1,6.2,0.2,9.3c0.7,5.3,3.5,10.1,7.6,13.4c4.8,3.6,11.8,4.7,17.7,5.3c10.6,1,21.4,0.9,32-0.4c5.5-0.9,12.2-2.2,16.1-6.5
	c4.1-4,6.1-9.4,6.1-15.1c0-73.3,0-146.7,0-220c0-4.7,0.7-10.1,4.2-13.5c3.5-3.4,8.9-4,13.5-4c24,0,48,0,72.1,0
	c4.7,0,10.1,0.4,13.9,3.6c3.8,3.4,4.6,9,4.6,13.8c0,79.4,0,158.7,0,238.1c0,16.9-2.7,35.5-10.8,50.6c-8.2,14.6-21.3,24.8-36.2,31.7
	c-18.1,8.3-38.3,12.7-58,14.8c-20,2.1-40.4,2.4-60.5,1.9c-20.6-0.7-41.1-2.6-61.1-7.9c-12.5-3.4-24.5-7.7-35.6-14.5
	c-12.5-7.7-23-18.6-28.8-32.3c-5.9-14.4-8-30-7.8-45.4c0-79,0-158,0-237c0-4.8,0.7-10.3,4.5-13.8C655.9,83,661.3,82.5,666,82.5z"/>
<path d="M1117,82.5c48.7,0,97.3,0,146,0c4.7,0,10.1,0.4,13.8,3.7c3.9,3.4,4.6,8.9,4.6,13.8c0,19.4,0,38.7,0,58.1
	c0,4.6-0.7,10-4,13.4c-3.5,3.5-8.8,4.1-13.4,4.2c-43.3,0-86.7,0-130,0c-7.5,0.1-16.7,1.5-22.3,7c-4.7,4.6-6.1,10.9-6.1,17.3
	c0,38.3,0,76.7,0,115c0,6.5,1.1,13.7,6,18.4c4.4,4.3,10.5,5.3,16.4,5.4c15.6,0,31.1,0,46.7,0c0-24.9,0-49.9,0-74.9
	c0.1-4.9,0.6-10.3,4.3-13.9c3.7-3.4,9.1-3.9,14-3.9c24.7,0,49.3,0,74,0c4.8,0.1,10,0.7,13.5,4.3c3.3,3.5,3.9,8.9,3.9,13.5
	c0,49.7,0,99.4,0,149c-0.1,4.8-0.9,10.3-4.8,13.6c-4.1,3.3-9.6,3.5-14.6,3.5c-50,0-100,0-150,0c-18.1,0-37-1.5-54.5-6.5
	c-14.2-4-27.8-10.4-38.6-20.5c-11.2-10.4-18.5-23.9-22.2-38.6c-3-11.7-3.9-23.5-3.9-35.5c0-49,0-98,0-147c0-11.1,0.9-22,3.6-32.8
	c3.2-13.2,9.1-25.5,18.3-35.6c10.6-11.7,25-19.3,40-23.9C1076.9,84,1097.1,82.5,1117,82.5z"/>
<path d="M1448,82.5c49,0,98,0,147,0c4.8,0,10.2,0.3,14.1,3.4c3.9,3.1,4.9,8.4,5,13.2c0,20,0,40,0,60c-0.1,4.6-0.9,9.5-4.3,12.8
	c-3.6,3.4-9.1,3.9-13.7,3.9c-43,0-86,0-129,0c-8.1,0.1-17.7,1.5-23.4,7.9c-4.1,4.6-5.4,10.4-5.3,16.4c0,38.7,0,77.4,0,116.1
	c0.1,6.3,1.4,13.1,6.1,17.6c4.5,4.2,10.7,5.2,16.6,5.2c15.5,0,30.9,0,46.4,0c0-25,0-49.9,0-74.9c0-4.6,0.6-10.1,4-13.6
	c3.5-3.5,8.9-4.2,13.6-4.2c24.7,0,49.4,0,74,0c4.8,0,10.2,0.5,13.8,4c3.7,3.6,4.2,9,4.3,13.8c0,49.3,0,98.7,0,148
	c0,4.6-0.5,9.8-3.7,13.5c-3.3,3.7-8.7,4.5-13.4,4.6c-50.3,0-100.7,0-151,0c-11.7,0-23.4-0.5-35-2.2c-18-2.5-35.9-7.6-51-17.9
	c-12.6-8.6-22.2-21.1-27.6-35.4c-5.7-15-7.2-30.5-7-46.5c0-49,0-98,0-147c0-19.3,3.2-39.4,13.4-56.1c8.1-13.6,20.6-23.6,34.9-30
	C1398.8,85,1424.2,82.5,1448,82.5z"/>
<path d="M524,289.4c5.9-0.1,11.8,0.6,17.5,2.2c18.8,5.1,34.5,19.6,41.1,37.9c3.1,8.2,3.9,16.8,3.7,25.5c-0.2,10,0.7,20.4-1.6,29.9
	c-3.4,15.1-12.9,28.5-25.8,37c-10,6.7-22,10.2-34,10.1c-63.2,0-126.4,0-189.5,0c0-47.5,0-95.1,0-142.6
	C398.3,289.3,461.2,289.4,524,289.4z"/>
<path d="M238.7,300.8c9.1,15.6,18.1,31.2,27.1,46.9c-23.5,13.5-46.9,27.1-70.4,40.6c7.6,14.2,15.3,28.4,22.9,42.6
	c-15.2,9-30.4,18.1-45.6,27.1c-16.3-30-32.6-60-48.8-89.9c13.2-7.8,26.5-15.6,39.8-23.4C188.9,330.3,213.7,315.4,238.7,300.8z"/>
</svg>
