<?xml version="1.0" encoding="utf-8"?>
<!-- Generator: Adobe Illustrator 26.0.3, SVG Export Plug-In . SVG Version: 6.00 Build 0)  -->
<svg version="1.1" id="Layer_1" xmlns="http://www.w3.org/2000/svg" xmlns:xlink="http://www.w3.org/1999/xlink" x="0px" y="0px"
	 viewBox="0 0 181 172" style="enable-background:new 0 0 181 172;" xml:space="preserve">
<style type="text/css">
	.st0{fill:#FE3C1A;}
</style>
<path class="st0" d="M173.7,75.4c-2-16.7-9.4-32.7-20.5-45.4C135.6,10,107.5-0.8,80.9,2.5c-14.7,2-28.7,7.4-40.6,16.4
	C12.6,39.1-0.1,77.3,10.7,110.2c10.3,34.7,44.2,60.2,80.6,58.9c36.6,1.1,70.8-26.3,80-61.4C174.7,97,174.3,86.6,173.7,75.4z
	 M82.7,117.5c0,1.8-1.5,3.3-3.3,3.3H55.1c-1.8,0-3.3-1.5-3.3-3.3V54c0-1.8,1.5-3.3,3.3-3.3h24.3c1.8,0,3.3,1.5,3.3,3.3V117.5z
	 M129,117.5c0,1.8-1.5,3.3-3.3,3.3h-24.3c-1.8,0-3.3-1.5-3.3-3.3V54c0-1.8,1.5-3.3,3.3-3.3h24.3c1.8,0,3.3,1.5,3.3,3.3V117.5z"/>
</svg>
