<?xml version="1.0" encoding="utf-8"?>
<!-- Generator: Adobe Illustrator 26.0.3, SVG Export Plug-In . SVG Version: 6.00 Build 0)  -->
<svg version="1.1" id="Icon" xmlns="http://www.w3.org/2000/svg" xmlns:xlink="http://www.w3.org/1999/xlink" x="0px" y="0px"
	 viewBox="0 0 450 450" style="enable-background:new 0 0 450 450;" xml:space="preserve">
<style type="text/css">
	.st0{fill:#FFC630;}
</style>
<g>
	<path class="st0" d="M169.4,80c8.8,9.3,21.7,14.8,34.6,12.5c12.5-2.3,23.9-10.9,29.2-22.6c1.3-3.8,1.9-7.9,2.5-11.8
		c0.8-6.4-0.7-12.1-2.1-18.4c-1.2-4.8-5-8.2-8.1-11.8c-2.3-2.4-4.4-5.2-7.5-6.4c-5.1-2.2-10.4-4.8-16-5.2c-3.9-0.3-7.8-0.2-11.6,0.6
		c-4.3,0.9-8.4,3-12.4,4.7c-4,1.6-6.1,4.9-8.9,7.9c-3,3.3-5.7,6.6-7.2,10.9c-2.6,6.1-1.9,12.5-1.9,19.1
		C159.7,67.3,164.7,74.3,169.4,80z"/>
	<path class="st0" d="M365.8,211.4c-0.2-4.1-2.4-7.1-4.5-10.4c-4.4-6.4-7.9-13.1-12.8-19.2c-3.1-3.8-4.6-8.4-7.8-12.2
		c-3.3-4-6-8-8.4-12.6c-2.6-3.5-4.7-7.3-7.5-10.7c-3-3.2-7.5-5.5-11.4-7.5c-3.8-1.9-7.1-4.2-11.1-5.8c-9.7-3.4-18.1-10.1-27.8-13.5
		c-7.4-3.3-14.2-8-21.5-11.3c-6-2.1-10.5-5.4-17.2-5.3c-11.3,0-22.7,0-34,0.1c-5.6-0.1-10.7,2.3-15.1,5.5c-1.7,1.7-2.3,4.5-3.2,6.7
		c-2.7,6.9-5.6,13.7-8.4,20.5c-1.9,4.7-2.8,9.6-4.8,14.3c-3.2,7.8-6.5,15.5-9.5,23.4c-1.5,6-3.7,11.5-6,17.2
		c-5.1,2.3-10.5,3.9-15.5,6.5c-5.5,2.8-11,5.6-16.7,8.2c-3.8,1.5-7.8,2.6-11.5,4.6c-6.3,3.5-12.4,5.1-17.3,10.8
		c-3.9,5.2-4.7,12.7-1.7,18.6c1.4,2.7,4,4.9,6.3,6.9c3.8,3.4,9.3,4.2,14.2,3.1c5-1.1,9.6-4.5,14.5-6.2c6.8-2.1,12.9-5.8,19.4-8.9
		c4-2.4,8.4-3.5,12.7-5.2c7.4-3.6,14.9-7.2,22.3-11c2.7-1.4,3.4-4.7,4.6-7.2c3.4-8.9,7.6-17.5,10.5-26.6c0.5,3.6,1.2,7.2,2,10.7
		c3.5,16.1,7,32.2,10.7,48.2c0.3,1.6,0.8,3.4,0.4,5.1c-1.3,3.3-4,6.2-6.1,9c-5.3,6.9-8.8,14.8-14.3,21.6c-3.6,4.1-5,9.4-8.5,13.6
		c-2.9,3.6-5.4,7.4-7.7,11.3c-3.3,5.7-7.1,10.3-9.7,16.3c-2.7,6-4,12.4-6.7,18.3c-2.3,5.1-4.5,10.2-6.7,15.3
		c-1.7,3.9-2.4,8-4.1,11.9c-2.3,5.1-4.3,10.2-6.7,15.3c-2.6,5.5-3.8,11.3-6.2,16.9c-2.7,6.3-6.1,11.9-6.5,19
		c-0.1,3.3,0.6,7.2,2.7,9.7c4.9,4.8,12,7.2,18.8,6.4c4.6-0.6,7.9-3.1,11.7-5.5c4.4-9.4,8.6-18.9,12.4-28.5
		c2.8-10.8,8.8-20.6,12.2-30.8c3.1-10.6,8.5-20.3,12.4-30.7c1.5-4.2,4.8-6.2,8.1-8.9c4-3.1,6.2-7.6,10.2-10.7
		c2.9-2.2,5.5-4.6,7.7-7.6c3.2-4.2,7.9-6.5,11-10.8c2.6-3.5,5.5-6.1,9-8.5c1.5,5.2,2.8,10.4,3.5,15.7c1.2,7.3,3.6,14.3,5.3,21.5
		c2.5,8.5,3.7,17.3,7.8,24.9c4.1,4.2,7.2,9.1,11,13.5c2.4,4.1,5,7.9,8.2,11.3c3.8,3.9,5.5,9,9.4,12.8c4,4.1,6.9,9,10.3,13.6
		c2.6,3.4,5.2,6.8,7.8,10.1c3.1,4.1,5.7,8.9,9.4,12.4c3.1,2.6,6.4,5.3,10.5,5.9c6.4,1.3,13.1-2.2,17.8-6.4c3.4-5.6,4.3-13,1.9-19.2
		c-1.2-4.1-4.4-6.6-7-10.1c-5-6.2-8.8-13-14.3-18.8c-3.5-3.7-5.1-8.5-8.6-12.2c-3.4-3.5-6-7.5-8.7-11.5c-4.5-6-9.6-11.9-13.7-18.3
		c-1.9-2.9-2.1-6.1-2.8-9.5c-2.2-14.5-5-28.9-7.2-43.4c-0.5-12.5-3.5-24.3-5.3-36.7c-1.3-8.9-3.6-17.6-5.8-26.3
		c-1.2-4.4-1.3-9-2.4-13.4c-3.3-13-6.7-26-10-39c-1-5.6-1.4-11.2-3.3-16.6c2.8,1.9,5.7,3.5,8.9,4.7c7.9,2.9,15.1,7.8,22.6,11.6
		c3.8,2,8.4,2.3,10.8,6c3.2,4.9,7.2,9.2,9.7,14.5c2.4,4.7,6.3,8.3,9,13c3.6,6.3,7.6,12.3,12.1,18c3.4,4.5,4.7,9.3,10.7,11.2
		c4.7,0.9,10.5,1,15.1-0.2C361.3,226.2,366.7,218.7,365.8,211.4z"/>
</g>
</svg>
