<?xml version="1.0" encoding="utf-8"?>
<!-- Generator: Adobe Illustrator 26.0.3, SVG Export Plug-In . SVG Version: 6.00 Build 0)  -->
<svg version="1.1" id="Layer_1" xmlns="http://www.w3.org/2000/svg" xmlns:xlink="http://www.w3.org/1999/xlink" x="0px" y="0px"
	 viewBox="0 0 595.3 506.5" style="enable-background:new 0 0 595.3 506.5;" xml:space="preserve">
<style type="text/css">
	.st0{fill:#EF4823;}
</style>
<g>
	<path class="st0" d="M90.4,24.4c17.2,10.2,34.3,20.3,51.4,30.5c-8.9,15.8-18,31.6-26.9,47.6c26.9,15.5,53.7,31,80.6,46.4
		c-10.2,17.6-20.5,35.4-30.6,53c-32-18.4-63.8-36.8-95.8-55.3c-11.6-7.8-24.1-14.3-36-21.6C52,91.5,71.2,57.8,90.4,24.4z"/>
	<path class="st0" d="M274.1,52.4c71.4,0,142.7,0,214.1,0c12.8,0,25.5,3.5,36.5,10.3c16.2,9.9,27.8,26.6,31.4,45.2
		c1.8,8.9,1.2,17.3,1.4,26.3c0,7.3,0.3,14.2-0.9,21.4c-2.6,16.9-11.9,32.7-25.3,43.2c-12.2,9.7-27.6,14.9-43.2,14.9
		c-71.3,0-142.8,0-214.1,0C274.1,159.9,274.1,106.1,274.1,52.4z"/>
	<path class="st0" d="M487.1,292.7c6.7-0.1,13.3,0.7,19.8,2.5c21.2,5.8,39,22.1,46.4,42.8c3.5,9.3,4.4,19,4.2,28.8
		c-0.2,11.3,0.8,23-1.8,33.8c-3.8,17.1-14.6,32.2-29.2,41.8c-11.3,7.6-24.9,11.5-38.4,11.4c-71.4,0-142.8,0-214.1,0
		c0-53.7,0-107.4,0-161.1C345.1,292.6,416.1,292.7,487.1,292.7z"/>
	<path class="st0" d="M164.7,305.6c10.3,17.6,20.5,35.3,30.6,53c-26.6,15.3-53,30.6-79.5,45.9c8.6,16,17.3,32.1,25.9,48.1
		c-17.2,10.2-34.3,20.5-51.5,30.6C71.7,449.3,53.3,415.4,35,381.7c14.9-8.8,29.9-17.6,45-26.4C108.5,338.9,136.5,322.1,164.7,305.6z
		"/>
</g>
</svg>
