<?xml version="1.0" encoding="utf-8"?>
<!-- Generator: Adobe Illustrator 26.0.3, SVG Export Plug-In . SVG Version: 6.00 Build 0)  -->
<svg version="1.1" id="Layer_1" xmlns="http://www.w3.org/2000/svg" xmlns:xlink="http://www.w3.org/1999/xlink" x="0px" y="0px"
	 viewBox="0 0 91 128" style="enable-background:new 0 0 91 128;" xml:space="preserve">
<style type="text/css">
	.st0{fill:#231F20;}
</style>
<path class="st0" d="M51,19c6.5,5.6,9.1,13.7,9,22c-0.2,12.7,0.5,25.6-0.8,38.2c-0.5,7.1-6.1,13-13,14.1C37.5,95,28,88.2,27.9,79
	c-0.2-11.3-0.3-22.7-0.6-34c0.2-3.6-0.3-8.2,3.6-10.1c3.6-2.4,8.7,1,8.9,5.1c0.7,11.8-0.7,24.1,0.9,35.8c1.2,0.6,2.5,1.1,3.7,1.7
	c1.3-2.1,2.6-3.8,2.5-6.5c0.1-9.3-0.2-18.7,0-28c-0.1-4.4,0.4-9.2-2.1-13c-2.1-3.3-6.4-4.3-10-4.5c-3.8-0.1-8.2,0.7-10.8,3.8
	c-2.2,2.5-2.5,6.6-2.7,9.8c-0.6,12.3-0.4,24.7-0.5,37c-0.1,5.6,0.4,10.8,3.5,15.6c3,4.5,7.6,8.5,12.9,10c6.1,1.4,13.1,0.7,18.4-2.8
	c5-3.1,8.5-8.6,9.7-14.3C66.2,80.8,66,76.8,66,73c-0.1-9,0-18-0.1-27c0.1-3-0.1-6.8,1.8-9.3c2.5-3.2,7.9-3,10.1,0.5
	c1.8,2.9,1.3,7.4,1.4,10.8c-0.3,10.9,0.3,22-0.7,32.8c-0.4,5.8-1.2,11.4-4.2,16.5C68.2,108.6,55.6,115,43,115.2
	c-9.3-0.2-18.7-4.3-25.2-11.1C12.5,98.3,9,91,8.9,83C8.5,67.7,8.8,52.3,9,37c0-8.2,4.8-16,11.7-20.3C29.8,10.8,42.9,11.7,51,19z"/>
</svg>
