<?xml version="1.0" encoding="utf-8"?>
<!-- Generator: Adobe Illustrator 26.0.3, SVG Export Plug-In . SVG Version: 6.00 Build 0)  -->
<svg version="1.1" id="Layer_1" xmlns="http://www.w3.org/2000/svg" xmlns:xlink="http://www.w3.org/1999/xlink" x="0px" y="0px"
	 viewBox="0 0 181 172" style="enable-background:new 0 0 181 172;" xml:space="preserve">
<style type="text/css">
	.st0{fill:#FFFFFF;}
	.st1{fill:#FE3C1A;}
</style>
<g>
	<circle class="st0" cx="89.5" cy="83.4" r="58.5"/>
	<path class="st1" d="M173.7,75.4c-2-16.7-9.4-32.7-20.5-45.4C135.6,10,107.5-0.8,80.9,2.5c-14.7,2-28.7,7.4-40.6,16.4
		C12.6,39.1-0.1,77.3,10.7,110.2c10.3,34.7,44.2,60.2,80.6,58.9c36.6,1.1,70.8-26.3,80-61.4C174.7,97,174.3,86.6,173.7,75.4z
		 M129.9,87.7c-13.2,8.7-26.9,16.1-40.3,24.4c-6.8,3.8-12.1,8.4-20,9.8c-2.8-6.4-1.8-12.3-2-19.1c0.2-15.9-0.2-31.8,0.1-47.6
		c-0.2-3.3,1.4-4.4,3.6-6.6c9.2,3.9,17.7,10,26.3,14.9c10.7,6.6,21.8,12.6,32.3,19.6C129.9,84.7,129.9,86.2,129.9,87.7z"/>
</g>
</svg>
